<mxfile host="app.diagrams.net" modified="2022-04-21T11:05:50.309Z" agent="5.0 (Windows NT 10.0; Win64; x64) AppleWebKit/537.36 (KHTML, like Gecko) Chrome/100.0.4896.127 Safari/537.36" etag="lfNBYuH5K2Dm5v_qcuhl" version="17.4.6" type="github">
  <diagram id="FWl2n5QhBM8T7-tbejHd" name="Page-1">
    <mxGraphModel dx="1038" dy="581" grid="1" gridSize="10" guides="1" tooltips="1" connect="1" arrows="1" fold="1" page="1" pageScale="1" pageWidth="850" pageHeight="1100" math="0" shadow="0">
      <root>
        <mxCell id="0" />
        <mxCell id="1" parent="0" />
        <mxCell id="3Nvt09ahGUNUXJGnKyIL-10" value="" style="edgeStyle=orthogonalEdgeStyle;rounded=0;orthogonalLoop=1;jettySize=auto;html=1;strokeColor=#006658;fontColor=#5C5C5C;" edge="1" parent="1" source="3Nvt09ahGUNUXJGnKyIL-7">
          <mxGeometry relative="1" as="geometry">
            <mxPoint x="430" y="250" as="targetPoint" />
          </mxGeometry>
        </mxCell>
        <mxCell id="3Nvt09ahGUNUXJGnKyIL-7" value="START" style="strokeWidth=2;html=1;shape=mxgraph.flowchart.start_1;whiteSpace=wrap;fontStyle=1;fillColor=#21C0A5;strokeColor=#006658;fontColor=#5C5C5C;" vertex="1" parent="1">
          <mxGeometry x="360" y="110" width="140" height="60" as="geometry" />
        </mxCell>
        <mxCell id="3Nvt09ahGUNUXJGnKyIL-12" style="edgeStyle=orthogonalEdgeStyle;rounded=0;orthogonalLoop=1;jettySize=auto;html=1;strokeColor=#006658;fontColor=#5C5C5C;" edge="1" parent="1" source="3Nvt09ahGUNUXJGnKyIL-11">
          <mxGeometry relative="1" as="geometry">
            <mxPoint x="570" y="300" as="targetPoint" />
          </mxGeometry>
        </mxCell>
        <mxCell id="3Nvt09ahGUNUXJGnKyIL-13" style="edgeStyle=orthogonalEdgeStyle;rounded=0;orthogonalLoop=1;jettySize=auto;html=1;exitX=0.5;exitY=1;exitDx=0;exitDy=0;exitPerimeter=0;strokeColor=#006658;fontColor=#5C5C5C;" edge="1" parent="1" source="3Nvt09ahGUNUXJGnKyIL-11">
          <mxGeometry relative="1" as="geometry">
            <mxPoint x="430" y="410" as="targetPoint" />
          </mxGeometry>
        </mxCell>
        <mxCell id="3Nvt09ahGUNUXJGnKyIL-11" value="IF CAR IS UNLOCKED" style="strokeWidth=2;html=1;shape=mxgraph.flowchart.decision;whiteSpace=wrap;fontStyle=1;fillColor=#21C0A5;strokeColor=#006658;fontColor=#5C5C5C;" vertex="1" parent="1">
          <mxGeometry x="380" y="250" width="100" height="100" as="geometry" />
        </mxCell>
        <mxCell id="3Nvt09ahGUNUXJGnKyIL-15" style="edgeStyle=orthogonalEdgeStyle;rounded=0;orthogonalLoop=1;jettySize=auto;html=1;exitX=1;exitY=0.5;exitDx=0;exitDy=0;exitPerimeter=0;strokeColor=#006658;fontColor=#5C5C5C;" edge="1" parent="1" source="3Nvt09ahGUNUXJGnKyIL-14">
          <mxGeometry relative="1" as="geometry">
            <mxPoint x="570" y="460" as="targetPoint" />
          </mxGeometry>
        </mxCell>
        <mxCell id="3Nvt09ahGUNUXJGnKyIL-16" style="edgeStyle=orthogonalEdgeStyle;rounded=0;orthogonalLoop=1;jettySize=auto;html=1;exitX=0.5;exitY=1;exitDx=0;exitDy=0;exitPerimeter=0;strokeColor=#006658;fontColor=#5C5C5C;" edge="1" parent="1" source="3Nvt09ahGUNUXJGnKyIL-14">
          <mxGeometry relative="1" as="geometry">
            <mxPoint x="430" y="570" as="targetPoint" />
          </mxGeometry>
        </mxCell>
        <mxCell id="3Nvt09ahGUNUXJGnKyIL-14" value="IF PERSON IS SEATED" style="strokeWidth=2;html=1;shape=mxgraph.flowchart.decision;whiteSpace=wrap;fontStyle=1;fillColor=#21C0A5;strokeColor=#006658;fontColor=#5C5C5C;" vertex="1" parent="1">
          <mxGeometry x="380" y="410" width="100" height="100" as="geometry" />
        </mxCell>
        <mxCell id="3Nvt09ahGUNUXJGnKyIL-23" style="edgeStyle=orthogonalEdgeStyle;rounded=0;orthogonalLoop=1;jettySize=auto;html=1;exitX=0.5;exitY=1;exitDx=0;exitDy=0;entryX=0.5;entryY=0;entryDx=0;entryDy=0;entryPerimeter=0;strokeColor=#006658;fontColor=#5C5C5C;" edge="1" parent="1" source="3Nvt09ahGUNUXJGnKyIL-19" target="3Nvt09ahGUNUXJGnKyIL-22">
          <mxGeometry relative="1" as="geometry" />
        </mxCell>
        <mxCell id="3Nvt09ahGUNUXJGnKyIL-19" value="HEATER IS ON" style="rounded=1;whiteSpace=wrap;html=1;absoluteArcSize=1;arcSize=14;strokeWidth=2;fontStyle=1;fillColor=#21C0A5;strokeColor=#006658;fontColor=#5C5C5C;" vertex="1" parent="1">
          <mxGeometry x="380" y="570" width="100" height="100" as="geometry" />
        </mxCell>
        <mxCell id="3Nvt09ahGUNUXJGnKyIL-20" value="HEATER IS OFF" style="rounded=1;whiteSpace=wrap;html=1;absoluteArcSize=1;arcSize=14;strokeWidth=2;fontStyle=1;fillColor=#21C0A5;strokeColor=#006658;fontColor=#5C5C5C;" vertex="1" parent="1">
          <mxGeometry x="570" y="250" width="100" height="100" as="geometry" />
        </mxCell>
        <mxCell id="3Nvt09ahGUNUXJGnKyIL-21" value="HEATER IS OFF" style="rounded=1;whiteSpace=wrap;html=1;absoluteArcSize=1;arcSize=14;strokeWidth=2;fontStyle=1;fillColor=#21C0A5;strokeColor=#006658;fontColor=#5C5C5C;" vertex="1" parent="1">
          <mxGeometry x="570" y="410" width="100" height="100" as="geometry" />
        </mxCell>
        <mxCell id="3Nvt09ahGUNUXJGnKyIL-22" value="END" style="strokeWidth=2;html=1;shape=mxgraph.flowchart.terminator;whiteSpace=wrap;fontStyle=1;fillColor=#21C0A5;strokeColor=#006658;fontColor=#5C5C5C;" vertex="1" parent="1">
          <mxGeometry x="380" y="750" width="100" height="60" as="geometry" />
        </mxCell>
        <mxCell id="3Nvt09ahGUNUXJGnKyIL-24" value="NO" style="text;html=1;align=center;verticalAlign=middle;resizable=0;points=[];autosize=1;strokeColor=none;fillColor=none;fontStyle=1;fontColor=#5C5C5C;" vertex="1" parent="1">
          <mxGeometry x="495" y="280" width="30" height="20" as="geometry" />
        </mxCell>
        <mxCell id="3Nvt09ahGUNUXJGnKyIL-25" value="NO" style="text;html=1;align=center;verticalAlign=middle;resizable=0;points=[];autosize=1;strokeColor=none;fillColor=none;fontStyle=1;fontColor=#5C5C5C;" vertex="1" parent="1">
          <mxGeometry x="495" y="430" width="30" height="20" as="geometry" />
        </mxCell>
        <mxCell id="3Nvt09ahGUNUXJGnKyIL-26" value="YES" style="text;html=1;align=center;verticalAlign=middle;resizable=0;points=[];autosize=1;strokeColor=none;fillColor=none;fontStyle=1;fontColor=#5C5C5C;" vertex="1" parent="1">
          <mxGeometry x="430" y="360" width="40" height="20" as="geometry" />
        </mxCell>
        <mxCell id="3Nvt09ahGUNUXJGnKyIL-29" value="YES" style="text;html=1;align=center;verticalAlign=middle;resizable=0;points=[];autosize=1;strokeColor=none;fillColor=none;fontStyle=1;fontColor=#5C5C5C;" vertex="1" parent="1">
          <mxGeometry x="430" y="520" width="40" height="20" as="geometry" />
        </mxCell>
      </root>
    </mxGraphModel>
  </diagram>
</mxfile>
